<svg id="svg" version="1.1" xmlns="http://www.w3.org/2000/svg" xmlns:xlink="http://www.w3.org/1999/xlink" width="400" height="463.3620689655172" viewBox="0, 0, 400,463.3620689655172"><g id="svgg"><path id="path0" d="M11.600 39.598 L 11.600 71.600 47.000 71.600 L 82.400 71.600 82.400 99.798 L 82.400 127.996 47.100 128.098 L 11.800 128.200 11.700 292.702 L 11.599 457.204 47.700 457.102 L 83.800 457.000 83.903 432.468 C 83.960 418.975,84.140 408.004,84.303 408.089 C 84.922 408.408,90.235 410.852,91.000 411.169 C 91.440 411.352,93.240 412.144,95.000 412.931 C 98.483 414.487,106.899 417.357,109.300 417.808 C 110.125 417.962,110.800 418.260,110.800 418.468 C 110.800 418.677,110.980 418.736,111.200 418.600 C 111.420 418.464,111.825 418.493,112.100 418.665 C 112.741 419.065,112.451 418.993,119.000 420.398 C 125.648 421.824,134.937 423.086,141.249 423.421 C 143.752 423.554,146.160 423.830,146.600 424.035 C 147.091 424.263,194.752 424.368,269.800 424.304 L 392.200 424.200 392.303 394.308 L 392.405 364.417 273.903 364.286 C 156.485 364.156,150.920 364.095,148.000 362.919 C 147.670 362.786,147.220 362.655,147.000 362.627 C 143.473 362.186,131.500 358.784,128.423 357.348 C 123.818 355.200,118.178 352.320,117.600 351.822 C 117.270 351.537,116.820 351.236,116.600 351.152 C 113.796 350.087,101.033 338.674,98.983 335.400 C 98.570 334.740,97.415 333.120,96.416 331.800 C 95.417 330.481,94.676 329.401,94.768 329.400 C 94.861 329.400,94.445 328.622,93.845 327.671 C 91.686 324.252,88.026 315.783,86.860 311.511 C 82.620 295.975,82.970 272.928,87.675 257.900 C 88.346 255.755,89.054 254.000,89.248 254.000 C 89.442 254.000,89.600 253.728,89.600 253.396 C 89.600 252.461,94.357 243.056,95.016 242.687 C 95.337 242.507,95.600 242.182,95.600 241.964 C 95.600 240.249,103.957 230.885,109.400 226.500 C 111.380 224.905,113.270 223.360,113.600 223.068 C 114.291 222.456,118.999 219.600,119.317 219.600 C 119.434 219.600,120.761 218.890,122.265 218.023 C 125.084 216.398,134.058 212.802,135.300 212.801 C 135.685 212.800,136.000 212.620,136.000 212.400 C 136.000 212.180,136.135 212.029,136.300 212.064 C 136.465 212.098,136.870 212.016,137.200 211.880 C 138.237 211.453,144.832 210.024,149.000 209.324 C 152.383 208.755,157.412 208.617,181.600 208.426 L 210.200 208.200 210.200 178.600 L 210.200 149.000 184.600 148.880 C 158.440 148.758,145.399 149.142,138.400 150.241 C 137.630 150.362,136.550 150.527,136.000 150.607 C 128.001 151.777,116.548 154.113,113.273 155.243 C 112.023 155.674,110.640 156.106,110.200 156.204 C 108.318 156.623,97.324 160.543,96.932 160.935 C 96.786 161.081,96.337 161.200,95.933 161.200 C 95.530 161.200,95.200 161.380,95.200 161.600 C 95.200 161.820,94.962 162.000,94.671 162.000 C 94.380 162.000,93.027 162.540,91.665 163.200 C 90.302 163.860,89.090 164.400,88.971 164.400 C 88.852 164.400,87.685 164.931,86.378 165.580 L 84.000 166.759 84.000 148.780 L 84.000 130.800 157.000 130.800 L 230.000 130.800 230.000 236.600 L 230.000 342.400 266.200 342.400 L 302.400 342.400 302.400 236.602 L 302.400 130.805 335.500 130.702 L 368.600 130.600 368.703 100.500 L 368.805 70.400 226.405 70.400 L 84.005 70.400 83.902 39.100 L 83.800 7.800 47.700 7.698 L 11.600 7.596 11.600 39.598 M82.808 223.737 C 82.822 253.815,82.757 278.554,82.665 278.712 C 82.413 279.144,82.565 293.338,82.826 293.800 C 82.950 294.020,83.018 294.785,82.976 295.500 C 82.934 296.215,82.877 321.377,82.850 351.416 L 82.800 406.033 79.187 404.078 C 77.200 403.003,74.925 401.600,74.131 400.962 C 73.338 400.323,72.489 399.729,72.244 399.642 C 71.825 399.492,63.627 393.313,63.200 392.824 C 63.090 392.698,62.370 392.126,61.600 391.552 C 59.793 390.204,50.120 380.598,48.748 378.788 C 48.169 378.025,47.269 376.928,46.748 376.352 C 45.086 374.513,44.313 373.504,41.741 369.811 C 40.357 367.825,39.041 365.985,38.817 365.721 C 38.592 365.458,37.410 363.478,36.191 361.321 C 34.971 359.165,33.800 357.130,33.589 356.800 C 31.759 353.938,27.454 344.357,25.629 339.082 C 24.109 334.689,22.800 330.379,22.800 329.766 C 22.800 329.491,22.651 329.207,22.468 329.133 C 21.781 328.857,19.502 316.929,18.393 307.800 C 17.453 300.066,17.546 278.462,18.555 270.000 C 19.365 263.212,21.030 253.226,21.789 250.600 C 25.747 236.916,26.789 233.747,28.733 229.473 C 29.416 227.974,30.634 225.184,31.441 223.273 C 32.247 221.363,33.165 219.591,33.480 219.336 C 33.795 219.081,34.029 218.760,34.000 218.621 C 33.971 218.483,34.769 216.945,35.774 215.203 C 36.778 213.462,37.600 211.883,37.600 211.694 C 37.600 211.505,37.915 210.992,38.300 210.554 C 38.685 210.115,39.180 209.471,39.400 209.122 C 41.485 205.813,44.718 201.267,45.379 200.713 C 45.831 200.336,46.071 200.021,45.913 200.013 C 45.756 200.006,46.116 199.494,46.713 198.876 C 47.311 198.257,48.160 197.240,48.600 196.615 C 50.076 194.518,61.096 183.831,64.859 180.846 C 68.489 177.967,77.376 171.600,77.765 171.600 C 77.872 171.600,78.995 170.976,80.261 170.214 C 81.526 169.452,82.612 168.878,82.673 168.939 C 82.734 169.001,82.795 193.660,82.808 223.737 " stroke="none" fill="#ec4c34" fill-rule="evenodd"></path><path id="path1" d="M151.800 247.789 C 147.842 248.521,143.666 250.074,141.368 251.671 C 140.286 252.422,138.906 253.284,138.302 253.586 C 136.919 254.275,131.219 259.971,130.407 261.474 C 129.386 263.364,127.859 265.788,127.554 266.003 C 126.971 266.415,125.208 271.722,124.613 274.858 C 123.107 282.796,124.668 294.366,127.816 298.600 C 128.307 299.260,129.115 300.608,129.611 301.596 C 130.627 303.616,138.025 311.200,138.980 311.200 C 139.321 311.200,139.950 311.550,140.379 311.979 C 143.878 315.478,155.574 317.921,163.663 316.842 C 169.200 316.104,176.800 313.529,176.800 312.392 C 176.800 312.176,177.044 312.000,177.342 312.000 C 179.170 312.000,188.400 303.010,188.400 301.230 C 188.400 300.994,188.551 300.800,188.736 300.800 C 189.976 300.800,192.872 292.484,193.599 286.837 C 194.617 278.938,192.246 267.131,188.933 263.600 C 188.623 263.270,187.823 262.150,187.155 261.111 C 185.527 258.582,180.644 254.075,177.966 252.631 C 176.775 251.989,175.710 251.341,175.600 251.191 C 173.498 248.336,159.596 246.349,151.800 247.789 " stroke="none" fill="#0c2c4b" fill-rule="evenodd"></path><path id="path2" d="M82.501 291.000 C 82.505 291.880,82.587 292.193,82.683 291.695 C 82.779 291.198,82.775 290.478,82.675 290.095 C 82.575 289.713,82.496 290.120,82.501 291.000 " stroke="none" fill="#f03c40" fill-rule="evenodd"></path><path id="path3" d="M82.501 291.000 C 82.505 291.880,82.587 292.193,82.683 291.695 C 82.779 291.198,82.775 290.478,82.675 290.095 C 82.575 289.713,82.496 290.120,82.501 291.000 " stroke="none" fill="#f03c40" fill-rule="evenodd"></path><path id="path4" d="M82.501 291.000 C 82.505 291.880,82.587 292.193,82.683 291.695 C 82.779 291.198,82.775 290.478,82.675 290.095 C 82.575 289.713,82.496 290.120,82.501 291.000 " stroke="none" fill="#f03c40" fill-rule="evenodd"></path></g></svg>