<?xml version="1.0" encoding="UTF-8"?>
<svg version="1.1" xmlns="http://www.w3.org/2000/svg" width="400" height="400">
<path d="M0 0 C132 0 264 0 400 0 C400 132 400 264 400 400 C268 400 136 400 0 400 C0 268 0 136 0 0 Z " fill="#321B0F" transform="translate(0,0)"/>
<path d="M0 0 C2.475 0.495 2.475 0.495 5 1 C4.6875 3.375 4.6875 3.375 4 6 C1 8 1 8 -2 8 C-1.95359375 8.73605469 -1.9071875 9.47210938 -1.859375 10.23046875 C-1.80523437 11.69419922 -1.80523437 11.69419922 -1.75 13.1875 C-1.70359375 14.15042969 -1.6571875 15.11335937 -1.609375 16.10546875 C-2.12024413 19.89100899 -3.24793497 21.37425927 -6 24 C-9.0234375 25.29296875 -9.0234375 25.29296875 -12.375 26.1875 C-13.47585938 26.49042969 -14.57671875 26.79335937 -15.7109375 27.10546875 C-16.79632813 27.40066406 -17.88171875 27.69585937 -19 28 C-21.00431449 28.65358081 -23.00579725 29.31618728 -25 30 C-25 30.66 -25 31.32 -25 32 C-21.17912571 33.91043715 -16.08352349 33.2470427 -11.828125 33.25390625 C-7.70242671 33.38283432 -4.79746378 33.70731039 -1.46484375 36.26953125 C1.80749417 39.89451415 1.80749417 39.89451415 1.6875 43.4375 C1.32733787 48.46301812 -0.26758968 50.67328646 -4 54 C-8.40997078 55.83434682 -12.24241149 56.29685004 -17 56.3125 C-18.175625 56.32925781 -19.35125 56.34601563 -20.5625 56.36328125 C-24.35195976 55.96280425 -26.76337827 54.97954097 -30 53 C-31.35439668 50.29120665 -31.06501451 47.99066732 -31 45 C-28.525 44.505 -28.525 44.505 -26 44 C-25.731875 45.11375 -25.46375 46.2275 -25.1875 47.375 C-24.34190981 51.21840951 -24.34190981 51.21840951 -21 53 C-14.97950491 53.72775215 -8.98240638 53.80236276 -4 50 C-3.14476234 47.49537541 -3 45.61906238 -3 43 C-7.80245799 41.66887667 -12.67119353 41.69071752 -17.625 41.5703125 C-22.40624219 41.36757432 -25.87882677 40.67749063 -30 38 C-31.125 35.0625 -31.125 35.0625 -31 32 C-28.91857068 29.32387659 -26.82832162 27.88554775 -24 26 C-24.804375 25.21625 -25.60875 24.4325 -26.4375 23.625 C-30.10661548 19.8663939 -30.45050871 17.49663144 -30.42578125 12.39453125 C-29.69260603 8.27126142 -27.08526198 5.68561665 -24 3 C-21.30335792 1.65167896 -19.13412479 1.83089318 -16.125 1.8125 C-15.07570313 1.79832031 -14.02640625 1.78414062 -12.9453125 1.76953125 C-10.00082764 1.99993524 -8.55445397 2.64795637 -6 4 C-4.68 4 -3.36 4 -2 4 C-1.34 2.68 -0.68 1.36 0 0 Z " fill="#F2F1F0" transform="translate(288,178)"/>
<path d="M0 0 C4.62 0 9.24 0 14 0 C18.11717613 7.97702876 21.9457151 15.97903113 25.4375 24.25 C25.79134766 25.08378174 26.14519531 25.91756348 26.50976562 26.77661133 C26.99799805 27.9467981 26.99799805 27.9467981 27.49609375 29.140625 C27.78669678 29.83704102 28.0772998 30.53345703 28.37670898 31.25097656 C29 33 29 33 29 35 C29.66 35 30.32 35 31 35 C31.38929688 33.77152344 31.77859375 32.54304688 32.1796875 31.27734375 C34.19066802 25.24558372 36.65474889 19.41777822 39.125 13.5625 C39.58003906 12.47517578 40.03507812 11.38785156 40.50390625 10.26757812 C43.82287645 2.3542471 43.82287645 2.3542471 45 0 C49.29 0 53.58 0 58 0 C58 0.66 58 1.32 58 2 C56.35 2 54.7 2 53 2 C53.33 15.86 53.66 29.72 54 44 C55.65 44.33 57.3 44.66 59 45 C59 45.66 59 46.32 59 47 C52.73 47 46.46 47 40 47 C41.32 46.01 42.64 45.02 44 44 C44.35621337 41.35655207 44.46800567 39.12455546 44.390625 36.48828125 C44.38659668 35.84258179 44.38256836 35.19688232 44.37841797 34.53161621 C44.35752607 32.12495412 44.3016798 29.71869785 44.25 27.3125 C44.1675 21.929375 44.085 16.54625 44 11 C36.575 28.82 36.575 28.82 29 47 C26 46 26 46 24.19067383 42.52172852 C23.51810046 40.97902374 22.8576972 39.43097801 22.20703125 37.87890625 C21.85613937 37.06381088 21.5052475 36.24871552 21.14372253 35.40892029 C20.40333459 33.68354965 19.66814345 31.95594115 18.93774414 30.22631836 C17.81667722 27.57238882 16.68034678 24.92542978 15.54101562 22.27929688 C14.82461817 20.60455251 14.10909366 18.9294344 13.39453125 17.25390625 C13.05396194 16.45803604 12.71339264 15.66216583 12.36250305 14.84217834 C10 9.23429237 10 9.23429237 10 7 C9.34 7 8.68 7 8 7 C8.11810088 11.9480849 8.2423384 16.89596276 8.37231445 21.84375 C8.41567817 23.52762642 8.4573522 25.21154723 8.49731445 26.89550781 C8.55498234 29.31328724 8.6186865 31.73084295 8.68359375 34.1484375 C8.70030624 34.9036972 8.71701874 35.65895691 8.73423767 36.43710327 C8.77555107 40.34739799 8.77555107 40.34739799 10 44 C12.02463255 44.65213292 12.02463255 44.65213292 14 45 C14 45.66 14 46.32 14 47 C9.38 47 4.76 47 0 47 C0 46.34 0 45.68 0 45 C1.65 44.34 3.3 43.68 5 43 C5.33 29.47 5.66 15.94 6 2 C4.02 2 2.04 2 0 2 C0 1.34 0 0.68 0 0 Z " fill="#F2F0F0" transform="translate(126,167)"/>
<path d="M0 0 C4.54154478 -0.08735463 9.08287232 -0.14051247 13.625 -0.1875 C15.55279297 -0.22520508 15.55279297 -0.22520508 17.51953125 -0.26367188 C19.38544922 -0.27817383 19.38544922 -0.27817383 21.2890625 -0.29296875 C23.00150146 -0.31653442 23.00150146 -0.31653442 24.74853516 -0.34057617 C29.54620239 0.16195768 32.80924879 1.93459103 36.375 5.125 C38.6579241 9.16401955 38.64118546 12.46361286 38 17 C36.59058691 21.39405256 34.61176041 24.13520386 30.44921875 26.3203125 C24.85975967 27.87145426 18.7505981 27.26643698 13 27 C13.14058476 29.45873768 13.28722999 31.91685175 13.4375 34.375 C13.49647461 35.42300781 13.49647461 35.42300781 13.55664062 36.4921875 C13.74280134 40.37360492 13.74280134 40.37360492 15 44 C18.02934491 44.65772428 18.02934491 44.65772428 21 45 C21 45.66 21 46.32 21 47 C13.74 47 6.48 47 -1 47 C-1 46.34 -1 45.68 -1 45 C0.98 44.34 2.96 43.68 5 43 C5.33 29.47 5.66 15.94 6 2 C4.02 2 2.04 2 0 2 C0 1.34 0 0.68 0 0 Z " fill="#F5F4F3" transform="translate(79,167)"/>
<path d="M0 0 C4.13208086 2.01237704 6.38365015 4.93690818 8.140625 9.0390625 C9.636812 14.3109214 9.90925184 19.56344226 7.88671875 24.71875 C5.34431916 29.13709492 2.54069295 32.31228569 -2.1953125 34.37890625 C-7.83587807 35.20378004 -13.31712298 35.49106207 -18.2578125 32.31640625 C-22.41840242 28.66320534 -23.88524269 24.90823974 -24.54296875 19.54296875 C-24.84475388 13.39893298 -24.24560837 9.1198192 -20.77734375 4 C-15.11820171 -1.79887394 -7.55085131 -2.13627288 0 0 Z " fill="#351E12" transform="translate(212.1953125,180.62109375)"/>
<path d="M0 0 C3.38734169 1.21785696 3.91942815 1.87914222 6 5 C6.22705078 7.63549805 6.22705078 7.63549805 6.1953125 10.76171875 C6.18886719 11.87998047 6.18242187 12.99824219 6.17578125 14.15039062 C6.15902344 15.31763672 6.14226562 16.48488281 6.125 17.6875 C6.11597656 18.86634766 6.10695313 20.04519531 6.09765625 21.25976562 C6.07406423 24.17338026 6.0411454 27.08658892 6 30 C7.65 30 9.3 30 11 30 C11 29.01 11 28.02 11 27 C11.66 27 12.32 27 13 27 C12.6815535 29.94563014 12.33733608 31.61076606 10.375 33.875 C6.9196228 35.51175762 4.64481875 34.92777204 1 34 C-0.9375 32.4375 -0.9375 32.4375 -2 31 C-2.804375 31.66 -3.60875 32.32 -4.4375 33 C-7.86853134 35.26838328 -10.80492127 35.65453537 -14.875 35.44140625 C-17 35 -17 35 -20.0625 33 C-22.17907006 29.72273024 -22.8883084 27.84701567 -22.58984375 23.99609375 C-21.64639848 20.80337497 -20.04247994 19.18002607 -17.421875 17.1875 C-12.60337918 14.82488269 -7.28969941 14.46135724 -2 14 C-2.14042877 12.35369672 -2.28749329 10.70795821 -2.4375 9.0625 C-2.51871094 8.14597656 -2.59992188 7.22945312 -2.68359375 6.28515625 C-2.76044976 4.03840268 -2.76044976 4.03840268 -4 3 C-6.67058851 2.85884839 -9.32432238 2.95752893 -12 3 C-13.32 5.64 -14.64 8.28 -16 11 C-17.32 10.67 -18.64 10.34 -20 10 C-20.33 8.35 -20.66 6.7 -21 5 C-15.47513432 -1.69680688 -8.07841635 -0.86619588 0 0 Z " fill="#F0EEEE" transform="translate(317,180)"/>
<path d="M0 0 C3.63 0 7.26 0 11 0 C11.66 1.65 12.32 3.3 13 5 C13.825 4.175 14.65 3.35 15.5 2.5 C18.0352806 0.39026295 19.75534985 -0.39959316 23.0625 -0.5 C26.98380753 -0.00205619 28.93869886 0.56896674 32 3 C34.18833577 6.28250365 34.27636519 7.42691565 34.37890625 11.25390625 C34.41306641 12.27291016 34.44722656 13.29191406 34.48242188 14.34179688 C34.50884766 15.40462891 34.53527344 16.46746094 34.5625 17.5625 C34.62229611 19.66808633 34.68590612 21.7735689 34.75390625 23.87890625 C34.77783447 24.8129126 34.8017627 25.74691895 34.82641602 26.70922852 C34.85692555 29.0291456 34.85692555 29.0291456 36 31 C36.99 31.33 37.98 31.66 39 32 C39 32.66 39 33.32 39 34 C33.72 34 28.44 34 23 34 C23 33.34 23 32.68 23 32 C23.99 31.34 24.98 30.68 26 30 C26.44877227 27.72849356 26.44877227 27.72849356 26.36328125 25.09765625 C26.36263672 24.12505859 26.36199219 23.15246094 26.36132812 22.15039062 C26.3371582 20.62188477 26.3371582 20.62188477 26.3125 19.0625 C26.31572266 18.04736328 26.31894531 17.03222656 26.32226562 15.98632812 C26.43326849 10.15413878 26.43326849 10.15413878 24 5 C19.3966766 4.41581732 19.3966766 4.41581732 15.30224609 6.20874023 C13.57456992 8.5851857 13.61263297 10.11281614 13.6015625 13.03515625 C13.59769531 14.00904297 13.59382813 14.98292969 13.58984375 15.98632812 C13.60144531 17.00146484 13.61304688 18.01660156 13.625 19.0625 C13.61339844 20.08150391 13.60179687 21.10050781 13.58984375 22.15039062 C13.59371094 23.12298828 13.59757812 24.09558594 13.6015625 25.09765625 C13.60494629 25.98976807 13.60833008 26.88187988 13.61181641 27.80102539 C13.73991699 28.52668701 13.86801758 29.25234863 14 30 C14.99 30.66 15.98 31.32 17 32 C17 32.66 17 33.32 17 34 C11.39 34 5.78 34 0 34 C0 33.34 0 32.68 0 32 C1.32 31.34 2.64 30.68 4 30 C4.33 20.76 4.66 11.52 5 2 C3.35 2 1.7 2 0 2 C0 1.34 0 0.68 0 0 Z " fill="#EEECEB" transform="translate(331,180)"/>
<path d="M0 0 C6.6 0 13.2 0 20 0 C20 0.66 20 1.32 20 2 C18.02 2 16.04 2 14 2 C14.02618408 3.04865234 14.05236816 4.09730469 14.0793457 5.17773438 C14.17040431 9.09873805 14.22744908 13.01964987 14.2746582 16.94140625 C14.2996766 18.63297281 14.3337029 20.32443264 14.37719727 22.015625 C14.80136198 38.94229215 14.80136198 38.94229215 10.47338867 44.70507812 C6.4795192 48.21518313 2.70983465 48.35032757 -2.5 48.4375 C-4.46453125 48.49744141 -4.46453125 48.49744141 -6.46875 48.55859375 C-10 48 -10 48 -12.4453125 45.640625 C-14.15509393 42.73657413 -14.53596494 41.30511712 -14 38 C-13.34 37.34 -12.68 36.68 -12 36 C-9.375 36.375 -9.375 36.375 -7 37 C-6.855625 38.134375 -6.71125 39.26875 -6.5625 40.4375 C-6.38828522 43.80777201 -6.38828522 43.80777201 -5 45 C-1.58399407 45.41692853 -1.58399407 45.41692853 2 45 C4.03179391 43.2471716 4.87635282 41.789744 5.29281616 39.12976074 C5.44465403 36.77539383 5.49360909 34.43731843 5.51171875 32.078125 C5.52966995 31.21813904 5.54762115 30.35815308 5.56611633 29.47210693 C5.62020038 26.73145416 5.65410863 23.99097535 5.6875 21.25 C5.72067479 19.38929872 5.7551646 17.52862039 5.79101562 15.66796875 C5.87592569 11.11210472 5.94274584 6.55629212 6 2 C4.02 2 2.04 2 0 2 C0 1.34 0 0.68 0 0 Z " fill="#E9E6E5" transform="translate(46,167)"/>
<path d="M0 0 C4.13208086 2.01237704 6.38365015 4.93690818 8.140625 9.0390625 C9.636812 14.3109214 9.90925184 19.56344226 7.88671875 24.71875 C5.34431916 29.13709492 2.54069295 32.31228569 -2.1953125 34.37890625 C-7.83587807 35.20378004 -13.31712298 35.49106207 -18.2578125 32.31640625 C-22.41840242 28.66320534 -23.88524269 24.90823974 -24.54296875 19.54296875 C-24.84475388 13.39893298 -24.24560837 9.1198192 -20.77734375 4 C-15.11820171 -1.79887394 -7.55085131 -2.13627288 0 0 Z M-16.1953125 6.37890625 C-16.77436728 10.07825621 -16.75374728 13.70401511 -16.6953125 17.44140625 C-16.71078125 18.43462891 -16.72625 19.42785156 -16.7421875 20.45117188 C-16.76413322 26.07356198 -16.76413322 26.07356198 -14.4140625 31.03125 C-10.95950157 33.12953085 -8.11117672 33.19906672 -4.1953125 32.37890625 C-1.76411627 30.50875531 -0.55462077 29.0975228 0.8046875 26.37890625 C1.09594085 23.11486006 1.08256236 19.84194451 1.1171875 16.56640625 C1.14619141 15.66341797 1.17519531 14.76042969 1.20507812 13.83007812 C1.24554631 9.59337001 1.17239539 7.03416997 -0.93359375 3.28125 C-3.43471334 1.17754492 -4.46916297 0.69866396 -7.6953125 0.75390625 C-8.448125 0.74101562 -9.2009375 0.728125 -9.9765625 0.71484375 C-13.50813011 1.77182701 -14.40611275 3.15595045 -16.1953125 6.37890625 Z " fill="#F3F1F1" transform="translate(212.1953125,180.62109375)"/>
<path d="M0 0 C4.29 0 8.58 0 13 0 C13 0.66 13 1.32 13 2 C11.35 2 9.7 2 8 2 C8.33 15.86 8.66 29.72 9 44 C10.65 44.33 12.3 44.66 14 45 C14 45.66 14 46.32 14 47 C7.73 47 1.46 47 -5 47 C-2.525 44.525 -2.525 44.525 0 42 C0.43948867 39.14398524 0.59019987 36.90946543 0.48828125 34.07421875 C0.48120651 33.32662796 0.47413177 32.57903717 0.46684265 31.80879211 C0.43897645 29.43398598 0.37626132 27.06158649 0.3125 24.6875 C0.28740668 23.07229982 0.26459531 21.45706246 0.24414062 19.84179688 C0.18917647 15.89361181 0.10296527 11.94721311 0 8 C-0.99 8.33 -1.98 8.66 -3 9 C-2.41321669 5.47930015 -1.64350079 3.28700157 0 0 Z " fill="#F3F2F1" transform="translate(171,167)"/>
<path d="M0 0 C12.52941176 0 12.52941176 0 17 4 C18.84880723 7.69761446 18.33169353 11.95589041 18 16 C16.94744048 19.09189358 16.11914414 20.37993365 13.265625 21.9609375 C8.41242116 24.01132207 5.66046959 24 0 24 C0 16.08 0 8.16 0 0 Z " fill="#3C261B" transform="translate(92,169)"/>
<path d="M0 0 C3.96 0 7.92 0 12 0 C12.66 1.65 13.32 3.3 14 5 C14.680625 4.175 15.36125 3.35 16.0625 2.5 C19 0 19 0 22.5625 -0.5 C26.09737567 0.01416373 27.67549239 0.30357117 30 3 C30.25 5.6875 30.25 5.6875 30 8 C28.1875 8.6875 28.1875 8.6875 26 9 C25 8 24 7 23 6 C20.5 5.5 20.5 5.5 18 6 C15.78513785 7.64703342 15.07363394 8.50958214 14.65942383 11.26831055 C14.6829895 12.56442261 14.6829895 12.56442261 14.70703125 13.88671875 C14.7215332 15.2934082 14.7215332 15.2934082 14.73632812 16.72851562 C14.7740332 18.19321289 14.7740332 18.19321289 14.8125 19.6875 C14.82603516 20.67556641 14.83957031 21.66363281 14.85351562 22.68164062 C14.88887797 25.12164231 14.93822967 27.56054719 15 30 C16.65 30.66 18.3 31.32 20 32 C20 32.66 20 33.32 20 34 C13.4 34 6.8 34 0 34 C0 33.34 0 32.68 0 32 C1.98 31.67 3.96 31.34 6 31 C6.33 21.43 6.66 11.86 7 2 C4.69 2 2.38 2 0 2 C0 1.34 0 0.68 0 0 Z " fill="#F5F4F3" transform="translate(224,180)"/>
<path d="M0 0 C0.99 0.33 1.98 0.66 3 1 C2.67 1.99 2.34 2.98 2 4 C5.82087429 5.91043715 10.91647651 5.2470427 15.171875 5.25390625 C19.29757329 5.38283432 22.20253622 5.70731039 25.53515625 8.26953125 C28.80749417 11.89451415 28.80749417 11.89451415 28.6875 15.4375 C28.32733787 20.46301812 26.73241032 22.67328646 23 26 C18.59002922 27.83434682 14.75758851 28.29685004 10 28.3125 C8.824375 28.32925781 7.64875 28.34601563 6.4375 28.36328125 C2.64804024 27.96280425 0.23662173 26.97954097 -3 25 C-4.35439668 22.29120665 -4.06501451 19.99066732 -4 17 C-2.35 16.67 -0.7 16.34 1 16 C1.268125 17.11375 1.53625 18.2275 1.8125 19.375 C2.65809019 23.21840951 2.65809019 23.21840951 6 25 C12.02049509 25.72775215 18.01759362 25.80236276 23 22 C23.85523766 19.49537541 24 17.61906238 24 15 C19.19754201 13.66887667 14.32880647 13.69071752 9.375 13.5703125 C4.59375781 13.36757432 1.12117323 12.67749063 -3 10 C-4.125 7.0625 -4.125 7.0625 -4 4 C-2.0625 1.625 -2.0625 1.625 0 0 Z " fill="#F8F7F6" transform="translate(261,206)"/>
<path d="M0 0 C0.99386719 0.10183594 1.98773438 0.20367187 3.01171875 0.30859375 C3.77097656 0.39238281 4.53023438 0.47617188 5.3125 0.5625 C5.36699838 2.29130982 5.40551688 4.02062712 5.4375 5.75 C5.46070313 6.71292969 5.48390625 7.67585937 5.5078125 8.66796875 C5.2283404 12.80974528 4.39689144 15.60954995 1.25 18.375 C-2.82314543 20.0215907 -6.35859456 20.37661603 -10.6875 19.5625 C-13.73768661 17.5705414 -15.21882752 16.20453957 -16.23046875 12.66015625 C-16.56748488 9.34722411 -16.34902469 7.37668423 -14.21484375 4.75 C-9.52631865 0.60896721 -6.29872123 -0.66692342 0 0 Z " fill="#EDEBEA" transform="translate(310.6875,195.4375)"/>
<path d="M0 0 C8.66725664 -0.44070796 8.66725664 -0.44070796 13 3 C15.18833577 6.28250365 15.27636519 7.42691565 15.37890625 11.25390625 C15.43014648 12.78241211 15.43014648 12.78241211 15.48242188 14.34179688 C15.50884766 15.40462891 15.53527344 16.46746094 15.5625 17.5625 C15.62229611 19.66808633 15.68590612 21.7735689 15.75390625 23.87890625 C15.77783447 24.8129126 15.8017627 25.74691895 15.82641602 26.70922852 C15.85692555 29.0291456 15.85692555 29.0291456 17 31 C17.99 31.33 18.98 31.66 20 32 C20 32.66 20 33.32 20 34 C14.72 34 9.44 34 4 34 C4 33.34 4 32.68 4 32 C4.99 31.34 5.98 30.68 7 30 C7.44877227 27.72849356 7.44877227 27.72849356 7.36328125 25.09765625 C7.36263672 24.12505859 7.36199219 23.15246094 7.36132812 22.15039062 C7.3371582 20.62188477 7.3371582 20.62188477 7.3125 19.0625 C7.31572266 18.04736328 7.31894531 17.03222656 7.32226562 15.98632812 C7.43326849 10.15413878 7.43326849 10.15413878 5 5 C1.43230448 4.26393501 1.43230448 4.26393501 -2 4 C-1.34 2.68 -0.68 1.36 0 0 Z " fill="#F8F7F7" transform="translate(350,180)"/>
<path d="M0 0 C3.4375 0.5625 3.4375 0.5625 5.1328125 2.22265625 C6.78071152 5.17802006 6.80473848 7.1939779 6.75 10.5625 C6.74613281 11.59375 6.74226563 12.625 6.73828125 13.6875 C6.44209849 16.51854561 5.9867999 18.19749096 4.4375 20.5625 C1.56279507 21.99985246 -0.38144588 21.94422649 -3.5625 21.5625 C-6.48025673 19.33579092 -7.41288944 17.58076777 -7.9453125 13.95703125 C-8.12482995 9.52295023 -7.96988234 6.39355997 -6 2.375 C-3.5625 0.5625 -3.5625 0.5625 0 0 Z " fill="#392317" transform="translate(272.5625,181.4375)"/>
<path d="M0 0 C0.10815225 1.76949095 0.18566083 3.54087487 0.25 5.3125 C0.29640625 6.29863281 0.3428125 7.28476563 0.390625 8.30078125 C0 11 0 11 -1.7890625 12.8359375 C-4.95925856 14.50505133 -7.47981666 14.3259429 -11 14 C-13 12 -13 12 -13.4375 9.1875 C-12.86115252 4.98839696 -11.19698232 3.66415193 -8 1 C-5.29120665 -0.35439668 -2.99066732 -0.06501451 0 0 Z " fill="#362014" transform="translate(315,197)"/>
<path d="M0 0 C0 11.55 0 23.1 0 35 C-0.33 35 -0.66 35 -1 35 C-1.33 24.77 -1.66 14.54 -2 4 C-6.95 15.88 -6.95 15.88 -12 28 C-12.99 28 -13.98 28 -15 28 C-13.11966586 21.91656601 -10.90308213 15.9814781 -8.5625 10.0625 C-8.13022095 8.92566772 -8.13022095 8.92566772 -7.68920898 7.76586914 C-5.51155256 2.35614419 -5.51155256 2.35614419 -2.83984375 0.49609375 C-1 0 -1 0 0 0 Z " fill="#C4BEBA" transform="translate(172,174)"/>
<path d="M0 0 C1.32 0 2.64 0 4 0 C4.268125 1.11375 4.53625 2.2275 4.8125 3.375 C5.65809019 7.21840951 5.65809019 7.21840951 9 9 C16.51591267 10.05962048 22.43150527 8.63294523 29 5 C27.68253812 8.00779034 27.13182574 8.91611089 24.25 10.75 C17.63546169 13.28441257 9.11539096 13.29236381 2.62890625 10.6015625 C0 9 0 9 -1 7 C-1.125 3.9375 -1.125 3.9375 -1 1 C-0.67 0.67 -0.34 0.34 0 0 Z " fill="#F6F5F4" transform="translate(258,222)"/>
<path d="M0 0 C2.4375 1.1875 2.4375 1.1875 4 3 C4.25 5.6875 4.25 5.6875 4 8 C2.1875 8.6875 2.1875 8.6875 0 9 C-1 8 -2 7 -3 6 C-6.74849077 5.53143865 -7.76746204 5.84497469 -11 8 C-11 4 -11 4 -9.4375 1.75 C-6.09952227 -0.64649683 -4.02596744 -0.50324593 0 0 Z " fill="#F0EEED" transform="translate(250,180)"/>
<path d="M0 0 C2.625 0.375 2.625 0.375 5 1 C5.33 3.31 5.66 5.62 6 8 C8.475 8.99 8.475 8.99 11 10 C9 12 9 12 5.625 12.4375 C2 12 2 12 -0.4375 9.8125 C-2.10181685 6.81672968 -2.54441203 5.3572075 -2 2 C-1.34 1.34 -0.68 0.68 0 0 Z " fill="#F4F3F3" transform="translate(34,203)"/>
<path d="M0 0 C1.65 0.33 3.3 0.66 5 1 C4.6875 3.375 4.6875 3.375 4 6 C1 8 1 8 -2 8 C-2.33 8.66 -2.66 9.32 -3 10 C-3.33 8.35 -3.66 6.7 -4 5 C-3.34 4.67 -2.68 4.34 -2 4 C-0.86649466 1.98330173 -0.86649466 1.98330173 0 0 Z " fill="#EAE7E6" transform="translate(288,178)"/>
<path d="M0 0 C2.5625 0.1875 2.5625 0.1875 4.5625 2.1875 C4.02678571 5.72321429 4.02678571 5.72321429 2.5625 7.1875 C0.0625 7.3125 0.0625 7.3125 -2.4375 7.1875 C-3.4375 6.1875 -3.4375 6.1875 -3.5625 3.6875 C-3.39599509 0.35740177 -3.31519894 0.2550153 0 0 Z " fill="#F2F0EF" transform="translate(68.4375,207.8125)"/>
<path d="M0 0 C0 0.99 0 1.98 0 3 C-5.10012242 6.58386981 -9.04153097 7.11888504 -15.1875 7.0625 C-16.45980469 7.05347656 -17.73210937 7.04445312 -19.04296875 7.03515625 C-20.50669922 7.01775391 -20.50669922 7.01775391 -22 7 C-18.73612914 4.82408609 -17.60436238 4.76405278 -13.8125 4.625 C-8.30008686 4.23649216 -4.74399798 2.77479127 0 0 Z " fill="#EAE8E7" transform="translate(286,227)"/>
<path d="M0 0 C2.625 0.375 2.625 0.375 5 1 C5.625 2.875 5.625 2.875 6 5 C4 7 4 7 1.375 7.125 C0.59125 7.08375 -0.1925 7.0425 -1 7 C-1.625 4.625 -1.625 4.625 -2 2 C-1.34 1.34 -0.68 0.68 0 0 Z " fill="#F8F7F7" transform="translate(111,208)"/>
<path d="M0 0 C0.33 0.66 0.66 1.32 1 2 C3.02463255 2.65213292 3.02463255 2.65213292 5 3 C5 3.66 5 4.32 5 5 C0.38 5 -4.24 5 -9 5 C-9 4.34 -9 3.68 -9 3 C-2.25 0 -2.25 0 0 0 Z " fill="#ECEAE8" transform="translate(135,209)"/>
<path d="M0 0 C1 3 1 3 0.22265625 5.04296875 C-0.16019531 5.75066406 -0.54304687 6.45835937 -0.9375 7.1875 C-1.31777344 7.90292969 -1.69804687 8.61835938 -2.08984375 9.35546875 C-2.54037109 10.16951172 -2.54037109 10.16951172 -3 11 C-3.66 11 -4.32 11 -5 11 C-4.39102647 7.44765442 -3.54266151 4.2668126 -2 1 C-1.34 0.67 -0.68 0.34 0 0 Z " fill="#EBE9E8" transform="translate(169,175)"/>
</svg>
