<?xml version="1.0" encoding="UTF-8"?>
<svg version="1.1" xmlns="http://www.w3.org/2000/svg" width="225" height="225">
<path d="M0 0 C74.25 0 148.5 0 225 0 C225 74.25 225 148.5 225 225 C150.75 225 76.5 225 0 225 C0 150.75 0 76.5 0 0 Z " fill="#00003D" transform="translate(0,0)"/>
<path d="M0 0 C0.13792969 1.17175781 0.27585938 2.34351563 0.41796875 3.55078125 C1.85210947 13.17049282 3.72128103 19.33828247 11.63623047 25.27392578 C12.80583129 26.10804703 13.98493444 26.92899388 15.17285156 27.73681641 C17.71438855 29.49388647 20.12580774 31.40258046 22.55493164 33.31054688 C25.01416754 35.23721592 27.50617193 37.11840468 30 39 C25.88090581 44.23236289 21.40262916 48.1987086 16.203125 52.33984375 C12.41070246 55.42628118 8.86925678 58.77273576 5.3125 62.125 C4.66821045 62.73134277 4.0239209 63.33768555 3.36010742 63.96240234 C2.12397628 65.12576369 0.88789015 66.28917288 -0.34814453 67.45263672 C-5.02213412 71.83096158 -9.44472075 75.78628044 -15 79 C-15.21011719 77.82824219 -15.42023438 76.65648438 -15.63671875 75.44921875 C-18.0471388 63.91337367 -21.52810965 57.85572225 -31.23632812 51.21582031 C-33.03938859 49.97284673 -34.77858916 48.66935079 -36.515625 47.3359375 C-39.31682627 45.18627309 -42.14758198 43.08149423 -45 41 C-43.64124594 37.93328916 -42.13853257 35.92720105 -39.69140625 33.64453125 C-39.03253418 33.02690918 -38.37366211 32.40928711 -37.69482422 31.77294922 C-36.99115723 31.12600098 -36.28749023 30.47905273 -35.5625 29.8125 C-34.83820801 29.13977051 -34.11391602 28.46704102 -33.36767578 27.77392578 C-28.65981683 23.4339173 -23.82634882 19.31891588 -18.80859375 15.33984375 C-14.5628571 11.80271406 -10.57510269 7.99360552 -6.59326172 4.16357422 C-2.21100977 0 -2.21100977 0 0 0 Z " fill="#01013D" transform="translate(122,33)"/>
<path d="M0 0 C0.13792969 1.17175781 0.27585938 2.34351563 0.41796875 3.55078125 C1.8527552 13.17482416 3.72490001 19.3329606 11.63623047 25.27612305 C12.80563101 26.11124569 13.98473894 26.93293137 15.17285156 27.74121094 C17.70784435 29.48765974 20.12578726 31.37205708 22.55493164 33.26171875 C23.70842046 34.15643768 24.86891442 35.04221234 26.03686523 35.91796875 C27.37514099 36.92276368 28.69029513 37.95823802 30 39 C30 39.33 30 39.66 30 40 C21.28912511 40.97775126 13.34352853 41.76784834 5.87597656 36.52001953 C-0.04260191 31.76316526 -3.732003 27.73478168 -5 20 C-5.6290625 20.56847656 -6.258125 21.13695313 -6.90625 21.72265625 C-9.60019476 24.15288654 -12.29978983 26.57673447 -15 29 C-15.76054688 29.68835938 -16.52109375 30.37671875 -17.3046875 31.0859375 C-17.98789063 31.69695312 -18.67109375 32.30796875 -19.375 32.9375 C-19.98085937 33.48277344 -20.58671875 34.02804688 -21.2109375 34.58984375 C-23.0524655 36.04135381 -24.87138806 37.02946548 -27 38 C-26.26023529 41.2925712 -26.26023529 41.2925712 -22.9375 42.875 C-21.30078125 44.12890625 -21.30078125 44.12890625 -20 46 C-19.46314261 50.37459045 -19.65324056 54.61413523 -20 59 C-24.62192061 57.53095088 -27.80830913 54.8498231 -31.375 51.6875 C-35.77281084 47.87026235 -40.16498 44.26082744 -45 41 C-43.64124594 37.93328916 -42.13853257 35.92720105 -39.69140625 33.64453125 C-39.03253418 33.02690918 -38.37366211 32.40928711 -37.69482422 31.77294922 C-36.99115723 31.12600098 -36.28749023 30.47905273 -35.5625 29.8125 C-34.83820801 29.13977051 -34.11391602 28.46704102 -33.36767578 27.77392578 C-28.65981683 23.4339173 -23.82634882 19.31891588 -18.80859375 15.33984375 C-14.5628571 11.80271406 -10.57510269 7.99360552 -6.59326172 4.16357422 C-2.21100977 0 -2.21100977 0 0 0 Z " fill="#0441C2" transform="translate(122,33)"/>
<path d="M0 0 C7.39779364 -0.49318624 7.39779364 -0.49318624 9.95410156 1.6003418 C12.43336453 4.50829833 13.52472313 7.21135671 14.875 10.78515625 C15.12620605 11.44148544 15.37741211 12.09781464 15.63623047 12.77403259 C16.43427886 14.86650718 17.21723894 16.96426548 18 19.0625 C18.52507286 20.44502979 19.05110637 21.82719514 19.578125 23.20898438 C21.07060642 27.13253428 22.53624507 31.06564466 24 35 C24.41765625 36.10327637 24.8353125 37.20655273 25.265625 38.34326172 C25.63171875 39.32182129 25.9978125 40.30038086 26.375 41.30859375 C26.69210938 42.15091553 27.00921875 42.9932373 27.3359375 43.86108398 C28 46 28 46 28 49 C24.7 49 21.4 49 18 49 C16.02 43.555 16.02 43.555 14 38 C8.06 37.67 2.12 37.34 -4 37 C-4.7115625 39.1346875 -4.7115625 39.1346875 -5.4375 41.3125 C-6.29166667 43.875 -7.14583333 46.4375 -8 49 C-11.3 49 -14.6 49 -18 49 C-17.38635998 44.21443771 -15.99732883 39.99408628 -14.19921875 35.546875 C-13.92157181 34.84661194 -13.64392487 34.14634888 -13.35786438 33.42486572 C-12.47329474 31.19765265 -11.58055563 28.97382205 -10.6875 26.75 C-10.09906602 25.27235168 -9.51117058 23.79448877 -8.92382812 22.31640625 C-7.53590691 18.82736107 -6.14171476 15.34087698 -4.74407959 11.85571289 C-3.68815922 9.22227816 -2.63519646 6.58766255 -1.58203125 3.953125 C-1.05474709 2.63539282 -0.5274315 1.31767321 0 0 Z " fill="#F7F7F8" transform="translate(168,125)"/>
<path d="M0 0 C11.55 0 23.1 0 35 0 C35 10.11967408 35 10.11967408 32.54296875 12.8515625 C32.0121167 13.46837891 31.48126465 14.08519531 30.93432617 14.72070312 C30.35787354 15.34912109 29.7814209 15.97753906 29.1875 16.625 C27.99674778 17.99979404 26.80931956 19.37747317 25.625 20.7578125 C25.02171875 21.45293945 24.4184375 22.14806641 23.796875 22.86425781 C20.92033879 26.28327123 18.29946815 29.87718087 15.6875 33.5 C14.140625 35.645 12.59375 37.79 11 40 C18.92 40 26.84 40 35 40 C34.01 42.97 33.02 45.94 32 49 C20.45 49 8.9 49 -3 49 C-3 39.50780649 -2.95993827 37.52140076 2.8125 31.3125 C4.00329852 29.94687967 5.19072564 28.57831322 6.375 27.20703125 C7.27992187 26.17376709 7.27992187 26.17376709 8.203125 25.11962891 C11.09032554 21.71383066 13.7042753 18.12124054 16.3125 14.5 C17.859375 12.355 19.40625 10.21 21 8 C13.41 8 5.82 8 -2 8 C-1 2 -1 2 0 0 Z " fill="#F7F7F8" transform="translate(35,125)"/>
<path d="M0 0 C12.54 0 25.08 0 38 0 C37.01 2.64 36.02 5.28 35 8 C26.75 8 18.5 8 10 8 C10 11.96 10 15.92 10 20 C14.95 20 19.9 20 25 20 C23 26 23 26 22 28 C18.04 28 14.08 28 10 28 C10 31.96 10 35.92 10 40 C18.91 40 27.82 40 37 40 C36.34 42.97 35.68 45.94 35 49 C30.65842948 49.09905303 26.31746146 49.17155301 21.97509766 49.21972656 C20.4987441 49.23981301 19.02246981 49.26708801 17.54638672 49.30175781 C15.42135038 49.35041184 13.29736766 49.37299673 11.171875 49.390625 C9.8940918 49.41157227 8.61630859 49.43251953 7.29980469 49.45410156 C4 49 4 49 1.57617188 47.61523438 C-0.91184395 43.48703958 -0.49186215 39.4911777 -0.390625 34.765625 C-0.38496521 33.77246277 -0.37930542 32.77930054 -0.37347412 31.75604248 C-0.35110026 28.58686941 -0.30090106 25.4188308 -0.25 22.25 C-0.22993635 20.10027676 -0.21168534 17.95053577 -0.1953125 15.80078125 C-0.15463517 10.5330665 -0.07634495 5.26780157 0 0 Z " fill="#F5F5F7" transform="translate(76,125)"/>
<path d="M0 0 C1.72974441 0.00015918 3.45949355 0.0058569 5.18920898 0.01586914 C6.09783188 0.01728409 7.00645477 0.01869904 7.94261169 0.02015686 C10.85687494 0.02577346 13.77106254 0.03832874 16.68530273 0.05102539 C18.65600475 0.05603825 20.62670797 0.06060153 22.59741211 0.06469727 C27.43923832 0.07574828 32.28100768 0.09302401 37.12280273 0.11352539 C36.13280273 2.75352539 35.14280273 5.39352539 34.12280273 8.11352539 C29.17280273 8.11352539 24.22280273 8.11352539 19.12280273 8.11352539 C19.12280273 21.64352539 19.12280273 35.17352539 19.12280273 49.11352539 C15.82280273 49.11352539 12.52280273 49.11352539 9.12280273 49.11352539 C9.12280273 35.58352539 9.12280273 22.05352539 9.12280273 8.11352539 C4.17280273 8.11352539 -0.77719727 8.11352539 -5.87719727 8.11352539 C-4.73794052 0.13872819 -4.73794052 0.13872819 0 0 Z " fill="#F6F6F8" transform="translate(123.877197265625,124.886474609375)"/>
<path d="M0 0 C1.24040039 0.04060547 1.24040039 0.04060547 2.50585938 0.08203125 C4.52588557 0.15208996 6.54455121 0.25968864 8.5625 0.375 C5.50326417 4.20721001 2.58613957 7.36296694 -1.3125 10.375 C-6.12406045 14.21643527 -10.64485894 18.27772882 -15.125 22.5 C-15.76920898 23.10626221 -16.41341797 23.71252441 -17.07714844 24.3371582 C-18.31335868 25.50060336 -19.54952608 26.66409404 -20.78564453 27.82763672 C-25.45963412 32.20596158 -29.88222075 36.16128044 -35.4375 39.375 C-35.58372803 38.8402002 -35.72995605 38.30540039 -35.88061523 37.75439453 C-36.54325521 35.33566661 -37.20908806 32.91782904 -37.875 30.5 C-38.10509766 29.65824219 -38.33519531 28.81648438 -38.57226562 27.94921875 C-38.79462891 27.14355469 -39.01699219 26.33789062 -39.24609375 25.5078125 C-39.45032959 24.76418457 -39.65456543 24.02055664 -39.86499023 23.25439453 C-40.39966267 21.3113705 -40.39966267 21.3113705 -41.4375 19.375 C-41.34938555 17.16361145 -41.1945216 14.95457815 -41 12.75 C-40.89816406 11.56148437 -40.79632813 10.37296875 -40.69140625 9.1484375 C-40.60761719 8.23320313 -40.52382812 7.31796875 -40.4375 6.375 C-38.766875 7.3340625 -38.766875 7.3340625 -37.0625 8.3125 C-36.43601562 8.67214844 -35.80953125 9.03179687 -35.1640625 9.40234375 C-32.41926047 12.53837322 -32.10911677 16.34371291 -31.4375 20.375 C-31.01976318 19.98231934 -30.60202637 19.58963867 -30.17163086 19.18505859 C-28.24088599 17.37180489 -26.30795728 15.56089495 -24.375 13.75 C-23.71822266 13.13253906 -23.06144531 12.51507813 -22.38476562 11.87890625 C-21.05902799 10.63806807 -19.72551448 9.40548787 -18.38452148 8.18115234 C-17.12885594 7.01633558 -15.90131013 5.82008026 -14.71118164 4.58837891 C-10.03536039 -0.0065787 -6.41043598 -0.40291217 0 0 Z " fill="#0804AD" transform="translate(142.4375,72.625)"/>
<path d="M0 0 C0.20689453 1.75763672 0.20689453 1.75763672 0.41796875 3.55078125 C1.8527552 13.17482416 3.72490001 19.3329606 11.63623047 25.27612305 C12.80563101 26.11124569 13.98473894 26.93293137 15.17285156 27.74121094 C17.70784435 29.48765974 20.12578726 31.37205708 22.55493164 33.26171875 C23.70842046 34.15643768 24.86891442 35.04221234 26.03686523 35.91796875 C27.37514099 36.92276368 28.69029513 37.95823802 30 39 C30 39.33 30 39.66 30 40 C21.28912511 40.97775126 13.34352853 41.76784834 5.87597656 36.52001953 C-0.04260191 31.76316526 -3.732003 27.73478168 -5 20 C-6.65 20.99 -8.3 21.98 -10 23 C-10 18.71 -10 14.42 -10 10 C-10.66 9.67 -11.32 9.34 -12 9 C-10.38050958 7.49405319 -8.75424026 5.99539332 -7.125 4.5 C-6.22007813 3.6646875 -5.31515625 2.829375 -4.3828125 1.96875 C-2 0 -2 0 0 0 Z " fill="#C14672" transform="translate(122,33)"/>
<path d="M0 0 C0.96931562 4.72451616 1.61251518 9.37634822 0 14 C-4.01145884 19.55084786 -9.61300471 23.84131605 -15 28 C-15.66 27.67 -16.32 27.34 -17 27 C-17.39593121 24.15649404 -17.50849854 21.3351283 -17.65625 18.46875 C-17.82640625 17.24671875 -17.82640625 17.24671875 -18 16 C-18.66 15.67 -19.32 15.34 -20 15 C-16.34639486 11.65194546 -12.6794352 8.31960062 -9 5 C-8.35289063 4.41347656 -7.70578125 3.82695313 -7.0390625 3.22265625 C-3.35869565 0 -3.35869565 0 0 0 Z " fill="#8255A0" transform="translate(112,43)"/>
<path d="M0 0 C6.50739958 3.73572939 6.50739958 3.73572939 7.91015625 7.3359375 C8.38334986 9.55819491 8.7588845 11.74138742 9 14 C10.32 13.67 11.64 13.34 13 13 C13.08160748 14.89510699 13.13946459 16.79124504 13.1875 18.6875 C13.22230469 19.74324219 13.25710937 20.79898438 13.29296875 21.88671875 C12.95526168 25.47541926 12.21803745 27.17573106 10 30 C7.3125 31.8125 7.3125 31.8125 5 33 C4.85377197 32.4652002 4.70754395 31.93040039 4.55688477 31.37939453 C3.89424479 28.96066661 3.22841194 26.54282904 2.5625 24.125 C2.33240234 23.28324219 2.10230469 22.44148438 1.86523438 21.57421875 C1.64287109 20.76855469 1.42050781 19.96289062 1.19140625 19.1328125 C0.98717041 18.38918457 0.78293457 17.64555664 0.57250977 16.87939453 C0.03783733 14.9363705 0.03783733 14.9363705 -1 13 C-0.91188555 10.78861145 -0.7570216 8.57957815 -0.5625 6.375 C-0.46066406 5.18648438 -0.35882813 3.99796875 -0.25390625 2.7734375 C-0.17011719 1.85820313 -0.08632812 0.94296875 0 0 Z " fill="#0622B6" transform="translate(102,79)"/>
<path d="M0 0 C3.76403286 0.53818424 5.96632365 1.40816165 8.8828125 3.8359375 C9.57503906 4.40570313 10.26726562 4.97546875 10.98046875 5.5625 C11.68816406 6.160625 12.39585937 6.75875 13.125 7.375 C13.84042969 7.96539062 14.55585938 8.55578125 15.29296875 9.1640625 C18.31786575 11.67444431 21.25353315 14.18405564 24 17 C21.12340174 17.1356886 18.25326537 17.23440753 15.375 17.3125 C14.56675781 17.35439453 13.75851563 17.39628906 12.92578125 17.43945312 C8.80587326 17.52319109 5.82912546 17.36429861 2.4375 14.875 C-0.45154277 11.46741109 -0.66427154 10.07478502 -0.375 5.6875 C-0.32085937 4.61886719 -0.26671875 3.55023438 -0.2109375 2.44921875 C-0.14132813 1.64097656 -0.07171875 0.83273438 0 0 Z " fill="#D5BB74" transform="translate(128,56)"/>
<path d="M0 0 C0.22134176 2.12368444 0.42670007 4.24904024 0.625 6.375 C0.79902344 8.15003906 0.79902344 8.15003906 0.9765625 9.9609375 C0.98429687 10.96382812 0.99203125 11.96671875 1 13 C-1 15 -1 15 -4.9140625 15.1953125 C-6.48449351 15.18200376 -8.05486221 15.15813602 -9.625 15.125 C-10.42679687 15.11597656 -11.22859375 15.10695313 -12.0546875 15.09765625 C-14.03658523 15.07406223 -16.01832981 15.03819065 -18 15 C-5.75510204 0 -5.75510204 0 0 0 Z " fill="#4F80C5" transform="translate(95,58)"/>
<path d="M0 0 C0 0.66 0 1.32 0 2 C-0.66 2 -1.32 2 -2 2 C-2 9.92 -2 17.84 -2 26 C-2.33 26 -2.66 26 -3 26 C-3.66 24.02 -4.32 22.04 -5 20 C-6.65 20.99 -8.3 21.98 -10 23 C-10 18.71 -10 14.42 -10 10 C-10.66 9.67 -11.32 9.34 -12 9 C-10.38050958 7.49405319 -8.75424026 5.99539332 -7.125 4.5 C-6.22007813 3.6646875 -5.31515625 2.829375 -4.3828125 1.96875 C-2 0 -2 0 0 0 Z " fill="#B72E74" transform="translate(122,33)"/>
<path d="M0 0 C0.08150744 2.06183633 0.1394194 4.12461349 0.1875 6.1875 C0.22230469 7.33605469 0.25710937 8.48460937 0.29296875 9.66796875 C-0.02789433 13.3172515 -0.83564127 15.08644018 -3 18 C-5.1875 19.8125 -5.1875 19.8125 -7 21 C-9.12579497 18.87420503 -8.44671369 14.34787605 -8.62109375 11.46875 C-8.74613281 10.6540625 -8.87117188 9.839375 -9 9 C-9.66 8.67 -10.32 8.34 -11 8 C-9.54712339 6.66072279 -8.08752741 5.32873153 -6.625 4 C-5.81289062 3.2575 -5.00078125 2.515 -4.1640625 1.75 C-2 0 -2 0 0 0 Z " fill="#5971B6" transform="translate(103,50)"/>
<path d="M0 0 C2.36775721 2.36775721 2.99896496 4.29711338 4.125 7.4375 C4.47820312 8.40558594 4.83140625 9.37367188 5.1953125 10.37109375 C6 13 6 13 6 16 C2.04 16 -1.92 16 -6 16 C-4.3967597 10.35048657 -2.85403778 5.16444932 0 0 Z " fill="#0A0A42" transform="translate(173,138)"/>
<path d="M0 0 C5.34021246 1.50193475 9.13647744 5.17482506 13 9 C13 9.33 13 9.66 13 10 C8.38 10 3.76 10 -1 10 C-1.09765625 3.06640625 -1.09765625 3.06640625 -1 1 C-0.67 0.67 -0.34 0.34 0 0 Z " fill="#FAF469" transform="translate(137,62)"/>
<path d="M0 0 C2.14576637 -0.02685938 4.29162645 -0.04633088 6.4375 -0.0625 C7.63246094 -0.07410156 8.82742187 -0.08570312 10.05859375 -0.09765625 C13 0 13 0 14 1 C14.07205511 2.68608966 14.08386068 4.37500659 14.0625 6.0625 C14.05347656 6.98160156 14.04445313 7.90070313 14.03515625 8.84765625 C14.02355469 9.55792969 14.01195313 10.26820312 14 11 C9.19428515 7.87628535 4.42514791 4.65018546 0 1 C0 0.67 0 0.34 0 0 Z " fill="#024EC6" transform="translate(77,73)"/>
<path d="M0 0 C3.32759923 1.55194754 5.48580485 3.30621949 8 6 C7.01 6.495 7.01 6.495 6 7 C5.53248212 9.35599235 5.53248212 9.35599235 5.375 12.0625 C5.30023438 12.98160156 5.22546875 13.90070312 5.1484375 14.84765625 C5.09945312 15.55792969 5.05046875 16.26820312 5 17 C1.125 15.125 1.125 15.125 0 14 C-0.07271741 11.64686445 -0.08370868 9.29166332 -0.0625 6.9375 C-0.05347656 5.64714844 -0.04445313 4.35679688 -0.03515625 3.02734375 C-0.02355469 2.02832031 -0.01195313 1.02929688 0 0 Z " fill="#CE716F" transform="translate(123,50)"/>
<path d="M0 0 C2.48046875 1.578125 2.48046875 1.578125 5 4 C5.48828125 7.234375 5.48828125 7.234375 5.3125 10.75 C5.26738281 11.92046875 5.22226563 13.0909375 5.17578125 14.296875 C5.11777344 15.18890625 5.05976562 16.0809375 5 17 C0.125 15.25 0.125 15.25 -1 13 C-0.91188555 10.78861145 -0.7570216 8.57957815 -0.5625 6.375 C-0.46066406 5.18648438 -0.35882813 3.99796875 -0.25390625 2.7734375 C-0.17011719 1.85820313 -0.08632812 0.94296875 0 0 Z " fill="#0434BD" transform="translate(97,75)"/>
<path d="M0 0 C0.66 0 1.32 0 2 0 C2.08150744 2.06183633 2.1394194 4.12461349 2.1875 6.1875 C2.22230469 7.33605469 2.25710937 8.48460937 2.29296875 9.66796875 C1.97295182 13.30762794 1.28684983 15.16942363 -1 18 C-1.99 18 -2.98 18 -4 18 C-3.67 17.34 -3.34 16.68 -3 16 C-2.7218975 12.3979105 -2.55267776 8.79603179 -2.37890625 5.1875 C-2 2 -2 2 0 0 Z " fill="#6E63AB" transform="translate(101,50)"/>
<path d="M0 0 C0.99 0 1.98 0 3 0 C3.10794277 2.26979665 3.18556176 4.54105196 3.25 6.8125 C3.29640625 8.07707031 3.3428125 9.34164062 3.390625 10.64453125 C3 14 3 14 0.984375 15.94921875 C0.32953125 16.29597656 -0.3253125 16.64273438 -1 17 C-1.02684679 14.35409986 -1.04676357 11.70846904 -1.0625 9.0625 C-1.07087891 8.30775391 -1.07925781 7.55300781 -1.08789062 6.77539062 C-1.09652441 4.85005687 -1.05224333 2.92464419 -1 1 C-0.67 0.67 -0.34 0.34 0 0 Z " fill="#98418E" transform="translate(109,43)"/>
<path d="M0 0 C2.475 0.495 2.475 0.495 5 1 C4.67 5.62 4.34 10.24 4 15 C2.68 14.01 1.36 13.02 0 12 C-0.390625 9.08203125 -0.390625 9.08203125 -0.25 5.8125 C-0.21390625 4.72582031 -0.1778125 3.63914063 -0.140625 2.51953125 C-0.09421875 1.68808594 -0.0478125 0.85664062 0 0 Z " fill="#DB956E" transform="translate(128,56)"/>
<path d="M0 0 C0.08076963 2.45898655 0.14037143 4.91533742 0.1875 7.375 C0.22520508 8.42300781 0.22520508 8.42300781 0.26367188 9.4921875 C0.29296875 11.5234375 0.29296875 11.5234375 0 15 C-0.99 15.66 -1.98 16.32 -3 17 C-3 12.71 -3 8.42 -3 4 C-3.66 3.67 -4.32 3.34 -5 3 C-1.125 0 -1.125 0 0 0 Z " fill="#A83280" transform="translate(115,39)"/>
<path d="M0 0 C0 2.31 0 4.62 0 7 C-3.21451269 8.60725635 -6.43612536 8.05748185 -10 8 C-3.73913043 0 -3.73913043 0 0 0 Z " fill="#1DA6E8" transform="translate(87,65)"/>
<path d="M0 0 C0 3.3 0 6.6 0 10 C1.32 10.33 2.64 10.66 4 11 C1.03 11 -1.94 11 -5 11 C-4.34 10.67 -3.68 10.34 -3 10 C-3.33 8.02 -3.66 6.04 -4 4 C-4.99 4 -5.98 4 -7 4 C-2.25 0 -2.25 0 0 0 Z " fill="#318ED3" transform="translate(90,62)"/>
<path d="M0 0 C0.33 0 0.66 0 1 0 C1 5.28 1 10.56 1 16 C0.34 16.33 -0.32 16.66 -1 17 C-1.22126178 14.54220024 -1.42750395 12.08472352 -1.625 9.625 C-1.68945312 8.92632812 -1.75390625 8.22765625 -1.8203125 7.5078125 C-1.96119739 5.67630889 -1.98761659 3.83687252 -2 2 C-1.34 1.34 -0.68 0.68 0 0 Z M-4 3 C-3.34 3.33 -2.68 3.66 -2 4 C-2.99 4 -3.98 4 -5 4 C-4.67 3.67 -4.34 3.34 -4 3 Z " fill="#884B95" transform="translate(107,45)"/>
<path d="M0 0 C2.475 0.99 2.475 0.99 5 2 C4.34 2.66 3.68 3.32 3 4 C2.53837573 6.43252661 2.53837573 6.43252661 2.375 9.125 C2.30023438 10.03507812 2.22546875 10.94515625 2.1484375 11.8828125 C2.09945312 12.58148438 2.05046875 13.28015625 2 14 C1.34 13.67 0.68 13.34 0 13 C0 8.71 0 4.42 0 0 Z " fill="#E5B26C" transform="translate(132,58)"/>
<path d="M0 0 C1.98 0.99 1.98 0.99 4 2 C3.67 2.66 3.34 3.32 3 4 C2.7724985 5.87056791 2.59037189 7.74685958 2.4375 9.625 C2.35371094 10.62789062 2.26992187 11.63078125 2.18359375 12.6640625 C2.12300781 13.43492188 2.06242187 14.20578125 2 15 C1.34 14.67 0.68 14.34 0 14 C0 9.38 0 4.76 0 0 Z " fill="#CA6171" transform="translate(123,50)"/>
<path d="M0 0 C1.32 0.66 2.64 1.32 4 2 C3.34 2 2.68 2 2 2 C2 4.31 2 6.62 2 9 C1.01 9.33 0.02 9.66 -1 10 C-1.02689216 8.52093108 -1.04634621 7.04172517 -1.0625 5.5625 C-1.07410156 4.73878906 -1.08570313 3.91507812 -1.09765625 3.06640625 C-1 1 -1 1 0 0 Z " fill="#F1D76B" transform="translate(137,62)"/>
<path d="M0 0 C0.99 0.495 0.99 0.495 2 1 C2.625 4.0625 2.625 4.0625 3 7 C2.34 7 1.68 7 1 7 C1 11.29 1 15.58 1 20 C0.67 20 0.34 20 0 20 C0 13.4 0 6.8 0 0 Z " fill="#C0536F" transform="translate(122,43)"/>
<path d="M0 0 C0.66 0 1.32 0 2 0 C2.33 3.96 2.66 7.92 3 12 C2.01 12 1.02 12 0 12 C-0.19401633 10.18818595 -0.38004375 8.37551468 -0.5625 6.5625 C-0.66691406 5.55316406 -0.77132812 4.54382813 -0.87890625 3.50390625 C-0.91886719 2.67761719 -0.95882812 1.85132813 -1 1 C-0.67 0.67 -0.34 0.34 0 0 Z " fill="#4589CD" transform="translate(90,60)"/>
<path d="M0 0 C1.32 0.33 2.64 0.66 4 1 C3.34 1.66 2.68 2.32 2 3 C1.53837573 5.43252661 1.53837573 5.43252661 1.375 8.125 C1.30023438 9.03507812 1.22546875 9.94515625 1.1484375 10.8828125 C1.09945312 11.58148438 1.05046875 12.28015625 1 13 C0.67 13 0.34 13 0 13 C0 8.71 0 4.42 0 0 Z " fill="#D0806E" transform="translate(127,54)"/>
<path d="M0 0 C1.98 0 3.96 0 6 0 C6 1.32 6 2.64 6 4 C1.125 2.25 1.125 2.25 0 0 Z " fill="#005CC9" transform="translate(77,73)"/>
</svg>
